<?xml version="1.0" encoding="UTF-8"?>
<svg version="1.1" xmlns="http://www.w3.org/2000/svg" width="64" height="64">
<path d="M0 0 C3.3 0 6.6 0 10 0 C10 1.98 10 3.96 10 6 C9.01 6 8.02 6 7 6 C7 6.66 7 7.32 7 8 C7.64066406 8.09796875 8.28132813 8.1959375 8.94140625 8.296875 C14.78467725 9.30703809 19.03161399 10.75974825 24 14 C24 12.35 24 10.7 24 9 C24.99 8.67 25.98 8.34 27 8 C29.82684384 9.81725675 31.65310925 11.03937946 32.8125 14.25 C32.874375 14.8275 32.93625 15.405 33 16 C32.01 16.66 31.02 17.32 30 18 C29.01 17.67 28.02 17.34 27 17 C27.52400391 18.03060547 27.52400391 18.03060547 28.05859375 19.08203125 C28.74115234 20.43361328 28.74115234 20.43361328 29.4375 21.8125 C29.88996094 22.70582031 30.34242187 23.59914063 30.80859375 24.51953125 C34.11248711 31.3981289 34.24246647 39.02126194 31.9765625 46.27734375 C28.31993022 54.2875907 23.37710703 59.81232769 15.1484375 63.16015625 C7.8102734 65.11760697 -1.26922584 65.28833058 -8.26953125 62.01953125 C-15.9485089 57.49534803 -20.14468109 51.48524101 -23 43 C-24.26461291 34.80414992 -23.27639155 27.16516343 -19 20 C-14.22135574 13.70912654 -8.19927004 9.89984358 -0.5 8.25 C0.7375 8.12625 0.7375 8.12625 2 8 C2 7.34 2 6.68 2 6 C1.01 5.67 0.02 5.34 -1 5 C-0.67 3.35 -0.34 1.7 0 0 Z " fill="#E3E7F1" transform="translate(27,0)"/>
<path d="M0 0 C3.3 0 6.6 0 10 0 C10 1.98 10 3.96 10 6 C9.01 6 8.02 6 7 6 C7 6.66 7 7.32 7 8 C7.64066406 8.09796875 8.28132813 8.1959375 8.94140625 8.296875 C14.78467725 9.30703809 19.03161399 10.75974825 24 14 C24 12.35 24 10.7 24 9 C24.99 8.67 25.98 8.34 27 8 C29.82684384 9.81725675 31.65310925 11.03937946 32.8125 14.25 C32.874375 14.8275 32.93625 15.405 33 16 C32.01 16.66 31.02 17.32 30 18 C29.01 17.67 28.02 17.34 27 17 C27.52400391 18.03060547 27.52400391 18.03060547 28.05859375 19.08203125 C28.74115234 20.43361328 28.74115234 20.43361328 29.4375 21.8125 C29.88996094 22.70582031 30.34242187 23.59914063 30.80859375 24.51953125 C34.11248711 31.3981289 34.24246647 39.02126194 31.9765625 46.27734375 C28.31993022 54.2875907 23.37710703 59.81232769 15.1484375 63.16015625 C7.8102734 65.11760697 -1.26922584 65.28833058 -8.26953125 62.01953125 C-15.9485089 57.49534803 -20.14468109 51.48524101 -23 43 C-24.26461291 34.80414992 -23.27639155 27.16516343 -19 20 C-14.22135574 13.70912654 -8.19927004 9.89984358 -0.5 8.25 C0.7375 8.12625 0.7375 8.12625 2 8 C2 7.34 2 6.68 2 6 C1.01 5.67 0.02 5.34 -1 5 C-0.67 3.35 -0.34 1.7 0 0 Z M-5.8125 16.5 C-6.99779297 17.19609375 -6.99779297 17.19609375 -8.20703125 17.90625 C-8.79871094 18.2671875 -9.39039063 18.628125 -10 19 C-9.34 20.32 -8.68 21.64 -8 23 C-9.32 22.34 -10.64 21.68 -12 21 C-12.8466034 22.38782485 -13.67675339 23.78569397 -14.5 25.1875 C-15.19609375 26.35345703 -15.19609375 26.35345703 -15.90625 27.54296875 C-17.10729647 30.24103386 -17.20741043 32.0806982 -17 35 C-16.01 35 -15.02 35 -14 35 C-14 35.66 -14 36.32 -14 37 C-14.99 37 -15.98 37 -17 37 C-16.60025786 42.79626107 -15.89748407 46.41472463 -12 51 C-11.01 51 -10.02 51 -9 51 C-9 51.99 -9 52.98 -9 54 C-4.38987758 56.95047835 -1.63470383 58.5497272 4 58 C4 57.34 4 56.68 4 56 C4.66 56 5.32 56 6 56 C6 56.66 6 57.32 6 58 C12.66434471 57.83376918 17.12772941 56.66978661 22 52 C26.10041778 47.25214783 26.73082749 43.05638154 27 37 C26.34 37 25.68 37 25 37 C25 36.34 25 35.68 25 35 C25.66 35 26.32 35 27 35 C27.63997443 29.88020458 26.27898524 27.01174937 23.4921875 22.89453125 C20.15706785 18.66015159 16.26530237 15.48508528 11 14 C8.29113059 13.83201738 8.29113059 13.83201738 6 14 C6 14.99 6 15.98 6 17 C5.34 17 4.68 17 4 17 C4 16.01 4 15.02 4 14 C-0.06534057 13.71116586 -2.33058355 14.42124391 -5.8125 16.5 Z " fill="#F6BD45" transform="translate(27,0)"/>
<path d="M0 0 C5.64496665 1.17457381 9.92938792 2.74436984 14.765625 5.8984375 C14.765625 4.2484375 14.765625 2.5984375 14.765625 0.8984375 C15.755625 0.5684375 16.745625 0.2384375 17.765625 -0.1015625 C20.59246884 1.71569425 22.41873425 2.93781696 23.578125 6.1484375 C23.64 6.7259375 23.701875 7.3034375 23.765625 7.8984375 C22.775625 8.5584375 21.785625 9.2184375 20.765625 9.8984375 C19.775625 9.5684375 18.785625 9.2384375 17.765625 8.8984375 C18.11496094 9.58550781 18.46429688 10.27257813 18.82421875 10.98046875 C19.50677734 12.33205078 19.50677734 12.33205078 20.203125 13.7109375 C20.88181641 15.05091797 20.88181641 15.05091797 21.57421875 16.41796875 C24.87811211 23.2965664 25.00809147 30.91969944 22.7421875 38.17578125 C18.9635469 46.45330057 13.88551274 51.54328914 5.640625 55.3359375 C2.29180811 55.9911408 -0.83060589 56.03458826 -4.234375 55.8984375 C-1.10271069 52.58782094 1.80002162 50.12304427 5.765625 47.8984375 C11.1143439 44.73286917 14.68259844 41.65826267 16.453125 35.51171875 C16.95010839 33.3132575 17.39032535 31.1206065 17.765625 28.8984375 C17.105625 28.8984375 16.445625 28.8984375 15.765625 28.8984375 C15.765625 28.2384375 15.765625 27.5784375 15.765625 26.8984375 C16.425625 26.8984375 17.085625 26.8984375 17.765625 26.8984375 C16.13599915 19.02191257 13.59486694 13.61386646 6.765625 8.8984375 C4.77417109 7.88152486 2.77375426 6.88201102 0.765625 5.8984375 C-1.27696386 4.61891145 -3.25012996 3.26851145 -5.234375 1.8984375 C-2.234375 -0.1015625 -2.234375 -0.1015625 0 0 Z " fill="#FC981D" transform="translate(36.234375,8.1015625)"/>
<path d="M0 0 C6.10669715 2.47175837 9.91322814 6.37966089 13.1640625 12.01953125 C14.30520607 14.72308168 14.13179692 17.10046771 14 20 C13.34 20 12.68 20 12 20 C12 20.66 12 21.32 12 22 C12.66 22 13.32 22 14 22 C13.97074227 28.3196687 12.73688778 32.42816546 8.69921875 37.3359375 C6.40069679 39.58690383 3.99044469 40.86078298 1 42 C1.268125 41.360625 1.53625 40.72125 1.8125 40.0625 C2.204375 39.051875 2.59625 38.04125 3 37 C3.26425781 36.3915625 3.52851562 35.783125 3.80078125 35.15625 C6.81607238 27.4965531 7.90161989 17.70920789 4.6875 9.9375 C3.58044866 8.01041063 2.45593555 6.09322591 1.3125 4.1875 C0 2 0 2 0 0 Z " fill="#CDD1DC" transform="translate(40,15)"/>
<path d="M0 0 C3.3 0 6.6 0 10 0 C10 1.98 10 3.96 10 6 C9.01 6 8.02 6 7 6 C7 6.66 7 7.32 7 8 C5.35 8 3.7 8 2 8 C2 7.34 2 6.68 2 6 C1.01 5.67 0.02 5.34 -1 5 C-0.67 3.35 -0.34 1.7 0 0 Z " fill="#E3E8F2" transform="translate(27,0)"/>
<path d="M0 0 C3.91402949 1.26941497 5.79072873 2.51167694 8 6 C7.34 7.32 6.68 8.64 6 10 C4.02 10 2.04 10 0 10 C0 9.34 0 8.68 0 8 C-0.66 8 -1.32 8 -2 8 C-1.125 1.125 -1.125 1.125 0 0 Z " fill="#D4DAE3" transform="translate(52,8)"/>
<path d="M0 0 C0.66 0 1.32 0 2 0 C2.06058594 0.81984375 2.12117188 1.6396875 2.18359375 2.484375 C2.26738281 3.56203125 2.35117187 4.6396875 2.4375 5.75 C2.51871094 6.81734375 2.59992187 7.8846875 2.68359375 8.984375 C2.94090773 11.43679962 3.31812218 13.63921291 4 16 C2.35 16.33 0.7 16.66 -1 17 C-1.5625 15.0625 -1.5625 15.0625 -2 13 C-1.67 12.67 -1.34 12.34 -1 12 C-0.76572222 9.98405418 -0.58663876 7.961526 -0.4375 5.9375 C-0.35371094 4.83277344 -0.26992188 3.72804688 -0.18359375 2.58984375 C-0.12300781 1.73519531 -0.06242187 0.88054688 0 0 Z " fill="#706FB2" transform="translate(31,22)"/>
<path d="M0 0 C1.65 0 3.3 0 5 0 C5 1.98 5 3.96 5 6 C4.01 6 3.02 6 2 6 C2 6.66 2 7.32 2 8 C0.35 8 -1.3 8 -3 8 C-3 7.34 -3 6.68 -3 6 C-2.01 5.67 -1.02 5.34 0 5 C0 3.35 0 1.7 0 0 Z " fill="#C4CCD9" transform="translate(32,0)"/>
<path d="M0 0 C5.66153846 2.46153846 5.66153846 2.46153846 7.375 5.1875 C7.58125 5.785625 7.7875 6.38375 8 7 C6.68 7.33 5.36 7.66 4 8 C0 2.25 0 2.25 0 0 Z " fill="#BEBFC6" transform="translate(40,15)"/>
<path d="M0 0 C0.99 0.33 1.98 0.66 3 1 C-1.625 5.875 -1.625 5.875 -5 7 C-3.75023244 3.34683329 -3.32901247 2.21934164 0 0 Z " fill="#BBB9BD" transform="translate(46,50)"/>
</svg>
